<?xml version="1.0" encoding="UTF-8"?>
<svg version="1.1" xmlns="http://www.w3.org/2000/svg" width="300" height="266">
<path d="M0 0 C2.66570809 2.59555787 3.825604 4.476812 5 8 C5.639375 8.598125 6.27875 9.19625 6.9375 9.8125 C9 12 9 12 9.875 14.9375 C11.0339977 18.09254929 11.59606577 18.72580336 14.125 20.6875 C15.07375 21.450625 16.0225 22.21375 17 23 C17 23.99 17 24.98 17 26 C18.65 25.67 20.3 25.34 22 25 C25 30.75 25 30.75 25 33 C26.9086676 35.00558225 26.9086676 35.00558225 29.3125 37.0625 C30.11300781 37.77535156 30.91351563 38.48820312 31.73828125 39.22265625 C33.9595848 41.17404665 33.9595848 41.17404665 37 42 C37.99 42.99 38.98 43.98 40 45 C40 35.43 40 25.86 40 16 C76.3 16 112.6 16 150 16 C150 30.85 150 45.7 150 61 C170.79 61 191.58 61 213 61 C211.25746132 64.48507737 209.42899643 67.86608253 207.5 71.25 C206.8915625 72.32765625 206.283125 73.4053125 205.65625 74.515625 C205.1096875 75.33546875 204.563125 76.1553125 204 77 C203.34 77 202.68 77 202 77 C201.67 82.61 201.34 88.22 201 94 C199.35 94 197.7 94 196 94 C196.165 93.21625 196.33 92.4325 196.5 91.625 C197.0623707 89.11791961 197.0623707 89.11791961 197 87 C195.66094733 88.7873962 194.32890934 90.58004953 193 92.375 C192.2575 93.37273437 191.515 94.37046875 190.75 95.3984375 C188.8139515 97.75401717 188.8139515 97.75401717 189 100 C188.41476563 100.58265625 187.82953125 101.1653125 187.2265625 101.765625 C183.99489366 105.00863303 181.92937821 108.82522936 179.5859375 112.734375 C179.06257812 113.48203125 178.53921875 114.2296875 178 115 C177.34 115 176.68 115 176 115 C176.33 116.32 176.66 117.64 177 119 C176.01 119.495 176.01 119.495 175 120 C174.34 120.99 173.68 121.98 173 123 C172.34 123.66 171.68 124.32 171 125 C170.0054669 126.27987267 169.02792352 127.57302935 168.0625 128.875 C167.55847656 129.55304688 167.05445313 130.23109375 166.53515625 130.9296875 C166.02855469 131.61289063 165.52195313 132.29609375 165 133 C164.45601562 133.68835938 163.91203125 134.37671875 163.3515625 135.0859375 C161.7443977 137.36198014 161.37986721 139.26495611 161 142 C159.68 142.33 158.36 142.66 157 143 C154.94081711 137.89680763 153.64097696 133.49408824 153 128 C152.65428548 125.85278874 152.2995293 123.70702081 151.9375 121.5625 C151.67259766 119.98662109 151.67259766 119.98662109 151.40234375 118.37890625 C151.26957031 117.59386719 151.13679687 116.80882813 151 116 C150.01 116.99 149.02 117.98 148 119 C147.34 118.67 146.68 118.34 146 118 C143.62187269 118.88651458 143.62187269 118.88651458 141.0625 120.25 C140.18722656 120.68828125 139.31195313 121.1265625 138.41015625 121.578125 C136.00102185 122.83554845 136.00102185 122.83554845 134.55859375 124.609375 C133 126 133 126 127 127 C127 143.17 127 159.34 127 176 C135.91 176 144.82 176 154 176 C154 167.75 154 159.5 154 151 C176.77 151 199.54 151 223 151 C223 180.04 223 209.08 223 239 C158.98 239 94.96 239 29 239 C29 223.49 29 207.98 29 192 C25.37 193.98 21.74 195.96 18 198 C17.67 199.32 17.34 200.64 17 202 C15.72125 202.061875 14.4425 202.12375 13.125 202.1875 C6.81460756 202.86754229 0.52276941 205.47723059 -4 210 C-5.45509973 210.75654142 -6.93822102 211.46029504 -8.4375 212.125 C-9.61119141 212.65480469 -9.61119141 212.65480469 -10.80859375 213.1953125 C-13 214 -13 214 -16 214 C-15.34 203.11 -14.68 192.22 -14 181 C-14.66 181.33 -15.32 181.66 -16 182 C-17.9453125 181.07421875 -17.9453125 181.07421875 -20.125 179.6875 C-20.84945312 179.23761719 -21.57390625 178.78773438 -22.3203125 178.32421875 C-22.87460937 177.88722656 -23.42890625 177.45023438 -24 177 C-24 176.34 -24 175.68 -24 175 C-27.91063224 173.52952664 -27.91063224 173.52952664 -32 173 C-32.33 172.01 -32.66 171.02 -33 170 C-35.08812458 168.54355243 -35.08812458 168.54355243 -37.5625 167.3125 C-38.38878906 166.87550781 -39.21507812 166.43851563 -40.06640625 165.98828125 C-40.70449219 165.66214844 -41.34257813 165.33601562 -42 165 C-40.74160485 161.22481455 -39.44096192 160.80240862 -36 159 C-33 158 -33 158 -31 158 C-31 156.68 -31 155.36 -31 154 C-28.69 153.67 -26.38 153.34 -24 153 C-23.67 151.68 -23.34 150.36 -23 149 C-22.13375 149.04125 -21.2675 149.0825 -20.375 149.125 C-16.84247915 148.99416589 -14.25121803 148.36097499 -11 147 C-10.67 146.34 -10.34 145.68 -10 145 C-9.01 145 -8.02 145 -7 145 C-6.67 144.01 -6.34 143.02 -6 142 C-4.68 142 -3.36 142 -2 142 C-2 141.34 -2 140.68 -2 140 C3.625 137 3.625 137 7 137 C7.33 136.01 7.66 135.02 8 134 C10.0625 133.3125 10.0625 133.3125 12 133 C11.505 132.401875 11.01 131.80375 10.5 131.1875 C9 129 9 129 9 126 C6.36 126 3.72 126 1 126 C0.61866701 124.0085944 0.28674418 122.00720923 0 120 C0.33 119.67 0.66 119.34 1 119 C0.01 118.505 0.01 118.505 -1 118 C-1.28875 116.88625 -1.5775 115.7725 -1.875 114.625 C-3.12977366 110.58184042 -3.77718478 110.34386561 -7 108 C-9.56215982 102.87568036 -11.25750398 97.44993436 -13 92 C-13.66 92 -14.32 92 -15 92 C-15.103125 91.401875 -15.20625 90.80375 -15.3125 90.1875 C-15.81504776 87.94818274 -15.81504776 87.94818274 -17.4375 86.6875 C-22.52869444 81.18901 -22.211317 71.72463967 -22.0625 64.625 C-22.01222656 63.31789062 -21.96195313 62.01078125 -21.91015625 60.6640625 C-22.00115057 56.95307658 -22.78482664 54.47385989 -24 51 C-25.10928078 42.52831534 -25.37254847 34.69824293 -23.47265625 26.34375 C-23.02352607 24.1166582 -22.92119894 22.19955393 -23 19.9375 C-23 17 -23 17 -21 15 C-20.34 14.67 -19.68 14.34 -19 14 C-18.773125 13.29875 -18.54625 12.5975 -18.3125 11.875 C-14.92497927 4.45471649 -8.27003355 -1.01561816 0 0 Z M21 29 C21.66 29.66 22.32 30.32 23 31 C23 30.34 23 29.68 23 29 C22.34 29 21.68 29 21 29 Z M127 75 C127 78.3 127 81.6 127 85 C129.91517292 83.92598892 131.77810176 83.22189824 134 81 C130.82460444 77.57421051 130.82460444 77.57421051 127 75 Z M46 170 C44.49195465 173.09756917 44.49195465 173.09756917 44 176 C47.63 176 51.26 176 55 176 C55 172.7 55 169.4 55 166 C51.5154079 166 48.65770686 167.88664274 46 170 Z " fill="#0303F6" transform="translate(55,10)"/>
<path d="M0 0 C1.125 1.5390625 1.125 1.5390625 2 3.625 C10.57544925 20.5331971 27.61160226 33.74106818 43 44 C43.1875 47.625 43.1875 47.625 43 51 C32.89724704 47.39057839 24.65318469 39.28449112 17 32 C16.47583496 31.50306641 15.95166992 31.00613281 15.41162109 30.49414062 C8.54140079 23.9411916 1.67231836 17.37619255 -3 9 C-3 8.34 -3 7.68 -3 7 C-6.82826636 10.65649702 -6.82826636 10.65649702 -8.4375 15.5625 C-7.61491826 22.02564221 -2.83406579 26.9109397 1 32 C-3.11574371 31.5251065 -6.36383344 30.9789756 -10 29 C-10.39207891 38.52606535 -10.30094459 45.23196892 -4.75 53.25 C-1.65346363 56.34653637 1.11910541 58.02150472 5 60 C5 60.33 5 60.66 5 61 C0.17639811 61.19294408 -3.49646738 60.75747614 -8 59 C-6.20495962 69.62852857 -1.38138793 75.39051623 7 82 C9.29148908 83.49699469 11.55810384 84.7530743 14 86 C14 86.33 14 86.66 14 87 C9.45194365 87.17835515 6.1205746 86.99785435 2 85 C5.10737206 92.62718596 11.67838613 95.73348326 18.55078125 99.546875 C19.35902344 100.02640625 20.16726562 100.5059375 21 101 C21 101.33 21 101.66 21 102 C18.03 102 15.06 102 12 102 C19.60721446 111.1524299 28.20675127 121.05404822 40.71508789 122.3996582 C44.8557073 122.54982134 48.98522857 122.43848064 53.125 122.3125 C54.57287777 122.28736323 56.02079801 122.26455962 57.46875 122.24414062 C60.98006426 122.18962189 64.48975195 122.10365533 68 122 C64.94104413 124.43735715 61.79422535 126.24853317 58.31640625 128.03125 C56.67768555 128.87623047 56.67768555 128.87623047 55.00585938 129.73828125 C53.86955078 130.31964844 52.73324219 130.90101563 51.5625 131.5 C49.31306032 132.65480626 47.06433571 133.81100672 44.81640625 134.96875 C43.82068604 135.47857422 42.82496582 135.98839844 41.79907227 136.51367188 C38.98102613 137.95920256 38.98102613 137.95920256 36.35913086 139.70507812 C32.29146743 141.93780987 27.76273496 140.34414051 23.37890625 139.48828125 C14.44166515 138.16649118 9.14350145 140.68705023 1.5625 145.25 C0.51384766 145.84941406 -0.53480469 146.44882813 -1.61523438 147.06640625 C-5.35386519 149.21296576 -9.05522455 151.40735341 -12.70727539 153.69824219 C-15 155 -15 155 -17 155 C-17 155.66 -17 156.32 -17 157 C-16.30519531 157.25523437 -15.61039063 157.51046875 -14.89453125 157.7734375 C-9.65150655 159.99517806 -4.89059469 163.09788887 0 166 C-0.33 172.93 -0.66 179.86 -1 187 C3.62745346 184.81074997 8.23459759 182.60460562 12.82446289 180.34106445 C14.38487714 179.57931661 15.95126929 178.82968019 17.52368164 178.09301758 C28.34705502 173.33691255 28.34705502 173.33691255 35.36328125 164.30078125 C35.92624961 162.53931943 36.47173424 160.77217844 37 159 C39.06926493 153.72368575 41.12136222 151.87547685 46.1640625 149.3515625 C46.7567392 149.04930756 47.34941589 148.74705261 47.96005249 148.43563843 C49.84043115 147.48192732 51.73212126 146.5536093 53.625 145.625 C54.90444543 144.9794469 56.18310124 144.33232629 57.4609375 143.68359375 C66.74498428 139 66.74498428 139 68 139 C68 152.2 68 165.4 68 179 C59.42 179 50.84 179 42 179 C42 192.53 42 206.06 42 220 C98.76 220 155.52 220 214 220 C214 198.22 214 176.44 214 154 C198.49 154 182.98 154 167 154 C167 162.25 167 170.5 167 179 C150.83 179 134.66 179 118 179 C118 156.89 118 134.78 118 112 C123.0325 109.31875 128.065 106.6375 133.25 103.875 C134.81137695 103.04210449 136.37275391 102.20920898 137.98144531 101.35107422 C145.93246756 97.11726333 153.91452683 92.97293394 162 89 C163.31799328 94.00837446 164.26678364 98.86748545 165 104 C165.33 104.33 165.66 104.66 166 105 C166.4846875 104.27296875 166.969375 103.5459375 167.46875 102.796875 C168.51244492 101.23133262 169.55616575 99.66580745 170.6003418 98.10058594 C172.37900314 95.43393878 174.15520363 92.76577789 175.92578125 90.09375 C181.52230283 81.65841312 187.26196371 73.3462346 193 65 C176.83 65 160.66 65 144 65 C147.63 68.63 151.26 72.26 155 76 C151.79050686 78.40711986 148.95080876 80.1747932 145.421875 81.99609375 C144.34292969 82.55490234 143.26398438 83.11371094 142.15234375 83.68945312 C140.46818359 84.55473633 140.46818359 84.55473633 138.75 85.4375 C137.64269531 86.01048828 136.53539062 86.58347656 135.39453125 87.17382812 C129.61633306 90.15911601 123.8177872 93.0911064 118 96 C118 82.14 118 68.28 118 54 C125.59 54 133.18 54 141 54 C141 42.45 141 30.9 141 19 C111.96 19 82.92 19 53 19 C53 30.55 53 42.1 53 54 C51.35 53.67 49.7 53.34 48 53 C48 39.8 48 26.6 48 13 C80.67 13 113.34 13 147 13 C147 27.52 147 42.04 147 57 C165.81 57 184.62 57 204 57 C202.38851371 61.02871572 200.95012329 63.78814556 198.54296875 67.2890625 C197.50172852 68.81128418 197.50172852 68.81128418 196.43945312 70.36425781 C195.69630859 71.44030273 194.95316406 72.51634766 194.1875 73.625 C193.41686996 74.74806529 192.64669201 75.87144092 191.87695312 76.99511719 C190.32458063 79.25985224 188.76965 81.52279419 187.21240234 83.78417969 C184.67042829 87.47904641 182.14120903 91.18248076 179.61328125 94.88696289 C174.10967034 102.94832034 168.56945952 110.98400788 163 119 C160.56198667 115.05677844 160.10550869 110.74486471 159.375 106.25 C159.17390625 105.06083984 159.17390625 105.06083984 158.96875 103.84765625 C158.64012702 101.89939142 158.31929295 99.94981561 158 98 C153.45174888 99.37953577 149.46583884 101.21573861 145.2890625 103.4765625 C144.16709473 104.08064941 143.04512695 104.68473633 141.88916016 105.30712891 C140.4819873 106.07202637 139.07481445 106.83692383 137.625 107.625 C133.12875 110.05875 128.6325 112.4925 124 115 C123.67 134.14 123.34 153.28 123 173 C135.87 173 148.74 173 162 173 C162 164.75 162 156.5 162 148 C180.81 148 199.62 148 219 148 C219 173.41 219 198.82 219 225 C158.94 225 98.88 225 37 225 C37 208.17 37 191.34 37 174 C23.26562935 180.90677826 23.26562935 180.90677826 9.53564453 187.82226562 C7.81819294 188.68391092 6.1005925 189.54525961 4.3828125 190.40625 C3.0378772 191.0863916 3.0378772 191.0863916 1.66577148 191.78027344 C0.38706177 192.41980957 0.38706177 192.41980957 -0.91748047 193.07226562 C-1.65916473 193.44532837 -2.400849 193.81839111 -3.16500854 194.20275879 C-5 195 -5 195 -7 195 C-7 186.09 -7 177.18 -7 168 C-13.93 164.04 -20.86 160.08 -28 156 C-28 155.34 -28 154.68 -28 154 C-27.29617187 153.62302979 -26.59234375 153.24605957 -25.8671875 152.85766602 C-23.17772883 151.41616357 -20.4893765 149.97261592 -17.80126953 148.52859497 C-16.00292193 147.56406715 -14.20273142 146.60304736 -12.40234375 145.64233398 C-7.22656309 142.87273791 -2.07108501 140.09773062 2.9375 137.03125 C14.67391747 129.85748382 14.67391747 129.85748382 21.703125 131.37890625 C22.84007813 131.68634766 22.84007813 131.68634766 24 132 C31.45372578 133.36041928 35.46420319 132.99409805 42 129 C41.28457031 128.81566406 40.56914063 128.63132813 39.83203125 128.44140625 C27.08592069 124.7313482 13.98150308 116.50092978 7.13671875 104.8203125 C5.93469937 102.55011744 4.75562298 100.26760301 3.6015625 97.97265625 C2.27165973 95.50422696 1.11559938 93.79133884 -0.8125 91.8125 C-3.11371592 88.85379382 -3.39016854 87.64698448 -3.9375 84.0625 C-4.52872384 80.2536541 -5.27987696 78.23842624 -7.9375 75.4375 C-14.3363518 68.63286735 -14.4002473 60.57423798 -14.53442383 51.6472168 C-14.66038681 46.88083987 -15.50963757 43.28242048 -17.32763672 38.88647461 C-18.35185357 36.01279137 -18.36000166 33.3416442 -18.3125 30.3125 C-18.30863281 29.23613281 -18.30476563 28.15976562 -18.30078125 27.05078125 C-17.99695425 23.96910737 -17.18980239 21.83372784 -16 19 C-15.73860975 17.2336356 -15.51025029 15.46211626 -15.3125 13.6875 C-14.30145108 7.61298655 -11.56264566 4.02459782 -7 0 C-4.263177 -1.3684115 -2.87645798 -0.90788205 0 0 Z M129 66 C129 69.3 129 72.6 129 76 C131.91517292 74.92598892 133.77810176 74.22189824 136 72 C132.82460444 68.57421051 132.82460444 68.57421051 129 66 Z M48 161 C46.49195465 164.09756917 46.49195465 164.09756917 46 167 C49.63 167 53.26 167 57 167 C57 163.7 57 160.4 57 157 C53.5154079 157 50.65770686 158.88664274 48 161 Z " fill="#F0F0FB" transform="translate(53,19)"/>
<path d="M0 0 C0 8.58 0 17.16 0 26 C-8.25 26 -16.5 26 -25 26 C-22.61037736 11.66226415 -22.61037736 11.66226415 -17.13134766 7.62207031 C-4.69871795 0 -4.69871795 0 0 0 Z M-15 14 C-16.50804535 17.09756917 -16.50804535 17.09756917 -17 20 C-13.37 20 -9.74 20 -6 20 C-6 16.7 -6 13.4 -6 10 C-9.4845921 10 -12.34229314 11.88664274 -15 14 Z " fill="#0A0AF4" transform="translate(116,166)"/>
<path d="M0 0 C7 0 7 0 9.07983398 1.28515625 C9.62969971 1.87167969 10.17956543 2.45820312 10.74609375 3.0625 C11.35517578 3.69414063 11.96425781 4.32578125 12.59179688 4.9765625 C13.20087891 5.64429687 13.80996094 6.31203125 14.4375 7 C15.07365234 7.66773437 15.70980469 8.33546875 16.36523438 9.0234375 C17.92718227 10.66759318 19.47046313 12.32574712 21 14 C19.84127746 17.47616761 19.38476605 17.63554981 16.2890625 19.26171875 C15.53882813 19.65810547 14.78859375 20.05449219 14.015625 20.46289062 C12.83226562 21.06907227 12.83226562 21.06907227 11.625 21.6875 C10.84382812 22.10322266 10.06265625 22.51894531 9.2578125 22.94726562 C3.40297876 26 3.40297876 26 0 26 C0 17.42 0 8.84 0 0 Z M5 7 C5 10.3 5 13.6 5 17 C7.91517292 15.92598892 9.77810176 15.22189824 12 13 C8.82460444 9.57421051 8.82460444 9.57421051 5 7 Z " fill="#0404ED" transform="translate(177,78)"/>
<path d="M0 0 C16.83 0 33.66 0 51 0 C50.01 1.32 49.02 2.64 48 4 C48 3.01 48 2.02 48 1 C33.48 1 18.96 1 4 1 C4 1.66 4 2.32 4 3 C4.66 3 5.32 3 6 3 C6 3.66 6 4.32 6 5 C6.66 5 7.32 5 8 5 C8 5.66 8 6.32 8 7 C8.66 7 9.32 7 10 7 C10 7.66 10 8.32 10 9 C10.66 9 11.32 9 12 9 C11.67 9.99 11.34 10.98 11 12 C9.16364422 10.19047409 7.33083792 8.37759362 5.5 6.5625 C4.97535156 6.04623047 4.45070312 5.52996094 3.91015625 4.99804688 C2.58775448 3.68423213 1.29164432 2.34406495 0 1 C0 0.67 0 0.34 0 0 Z " fill="#0F10BD" transform="translate(196,83)"/>
<path d="M0 0 C0.66 0 1.32 0 2 0 C2 5.94 2 11.88 2 18 C3.98 18 5.96 18 8 18 C5.16604069 20.32789515 3.70488428 21.07377893 0 22 C0 14.74 0 7.48 0 0 Z " fill="#2123D8" transform="translate(52,184)"/>
<path d="M0 0 C1.36421031 2.72842061 0.87807211 4.60953318 0.5625 7.625 C0.46066406 8.62789062 0.35882813 9.63078125 0.25390625 10.6640625 C0.17011719 11.43492188 0.08632813 12.20578125 0 13 C-1.65 13 -3.3 13 -5 13 C-4.25697027 8.91333648 -3.29128429 4.94981078 -2 1 C-1.34 0.67 -0.68 0.34 0 0 Z " fill="#000000" transform="translate(256,91)"/>
<path d="M0 0 C2.475 0.99 2.475 0.99 5 2 C5 2.66 5 3.32 5 4 C5.66 4 6.32 4 7 4 C7 4.66 7 5.32 7 6 C5.02 6 3.04 6 1 6 C0.67 4.02 0.34 2.04 0 0 Z " fill="#000000" transform="translate(55,130)"/>
<path d="M0 0 C2.64 1.32 5.28 2.64 8 4 C8 4.33 8 4.66 8 5 C4.37 4.67 0.74 4.34 -3 4 C-2.01 3.34 -1.02 2.68 0 2 C0 1.34 0 0.68 0 0 Z " fill="#D0D0F6" transform="translate(66,116)"/>
<path d="M0 0 C0.33 0 0.66 0 1 0 C1 2.31 1 4.62 1 7 C-0.65 7 -2.3 7 -4 7 C-2.68 4.69 -1.36 2.38 0 0 Z " fill="#000000" transform="translate(247,105)"/>
<path d="M0 0 C1.875 0.1875 1.875 0.1875 4 1 C5.25 3.5625 5.25 3.5625 6 6 C5.34 6 4.68 6 4 6 C4 5.34 4 4.68 4 4 C2.68 3.67 1.36 3.34 0 3 C0 2.01 0 1.02 0 0 Z " fill="#000000" transform="translate(74,35)"/>
<path d="M0 0 C0 0.99 0 1.98 0 3 C-1.98 3 -3.96 3 -6 3 C-2.25 0 -2.25 0 0 0 Z " fill="#000000" transform="translate(72,213)"/>
<path d="M0 0 C2.97 0 5.94 0 9 0 C9 0.33 9 0.66 9 1 C6.03 1 3.06 1 0 1 C0 0.67 0 0.34 0 0 Z " fill="#000006" transform="translate(55,217)"/>
<path d="M0 0 C0.99 0 1.98 0 3 0 C3 0.99 3 1.98 3 3 C2.01 3 1.02 3 0 3 C0 2.01 0 1.02 0 0 Z " fill="#000000" transform="translate(48,125)"/>
<path d="M0 0 C0.99 0 1.98 0 3 0 C3 0.99 3 1.98 3 3 C2.01 3 1.02 3 0 3 C0 2.01 0 1.02 0 0 Z " fill="#000000" transform="translate(25,159)"/>
<path d="M0 0 C0.66 0.66 1.32 1.32 2 2 C1.01 1.67 0.02 1.34 -1 1 C-0.67 0.67 -0.34 0.34 0 0 Z " fill="#000000" transform="translate(184,91)"/>
<path d="" fill="#000000" transform="translate(0,0)"/>
<path d="M0 0 C2 1 2 1 2 1 Z " fill="#000000" transform="translate(59,145)"/>
<path d="" fill="#000000" transform="translate(0,0)"/>
<path d="" fill="#000000" transform="translate(0,0)"/>
<path d="" fill="#000000" transform="translate(0,0)"/>
<path d="" fill="#000039" transform="translate(0,0)"/>
<path d="" fill="#000000" transform="translate(0,0)"/>
<path d="" fill="#000000" transform="translate(0,0)"/>
<path d="" fill="#000037" transform="translate(0,0)"/>
</svg>
